<?xml version="1.0" standalone="no"?>
<!DOCTYPE svg PUBLIC "-//W3C//DTD SVG 20010904//EN"
 "http://www.w3.org/TR/2001/REC-SVG-20010904/DTD/svg10.dtd">
<svg version="1.0" xmlns="http://www.w3.org/2000/svg"
 width="360.000000pt" height="360.000000pt" viewBox="0 0 360.000000 360.000000"
 preserveAspectRatio="xMidYMid meet">

<g transform="translate(0.000000,360.000000) scale(0.100000,-0.100000)"
fill="#000000" stroke="none">
<path d="M1482 2945 c-45 -14 -110 -36 -143 -50 -62 -25 -215 -110 -224 -125
-2 -4 34 -60 80 -125 47 -65 85 -121 85 -124 0 -4 -45 -51 -99 -105 l-100 -99
-28 18 c-15 10 -70 49 -122 87 -76 55 -97 66 -107 56 -56 -59 -171 -328 -190
-444 l-6 -41 148 -24 149 -24 0 -145 0 -145 -149 -24 -148 -24 6 -41 c19 -116
134 -385 190 -444 10 -10 31 1 107 56 52 38 107 77 122 87 l28 18 100 -99 c54
-54 99 -101 99 -105 0 -3 -38 -59 -85 -125 -68 -94 -83 -120 -73 -130 59 -56
328 -171 444 -190 l41 -6 24 148 24 149 145 0 145 0 24 -149 24 -148 41 6
c116 19 385 134 444 190 10 10 -5 36 -73 130 -47 66 -85 122 -85 125 0 4 45
51 99 105 l100 99 28 -18 c15 -10 70 -49 122 -87 76 -55 97 -66 107 -56 56 59
171 328 190 444 l6 41 -148 24 -149 24 0 145 0 145 149 24 148 24 -6 41 c-19
116 -134 385 -190 444 -10 10 -31 -1 -107 -56 -52 -38 -107 -77 -122 -87 l-28
-18 -100 99 c-54 54 -99 101 -99 105 0 3 38 59 85 125 68 94 83 120 73 130
-59 56 -328 171 -444 190 l-41 6 -24 -148 -24 -149 -145 0 -145 0 -24 148
c-27 170 -16 161 -149 122z m331 -352 c16 -16 -19 -33 -67 -33 -28 0 -78 -7
-111 -15 -77 -18 -95 -18 -95 0 0 13 63 37 130 48 42 7 136 7 143 0z m352 -79
c84 -42 128 -80 103 -89 -8 -3 -46 12 -83 35 -38 22 -91 47 -117 56 -30 10
-48 21 -48 31 0 24 58 11 145 -33z m-810 -80 c0 -6 -22 -29 -48 -52 -26 -23
-66 -63 -89 -89 -46 -54 -68 -65 -68 -33 0 29 163 193 188 188 9 -2 17 -8 17
-14z m1112 -187 c34 -50 82 -150 89 -186 6 -28 4 -32 -10 -30 -10 3 -27 28
-41 63 -13 32 -40 83 -60 113 -34 51 -38 73 -12 73 7 0 22 -15 34 -33z m-1397
-204 c0 -10 -5 -36 -11 -58 -7 -22 -14 -76 -18 -120 -5 -68 -9 -80 -25 -83
-18 -4 -19 1 -13 84 7 105 31 194 52 194 8 0 15 -8 15 -17z m1527 -310 c-7
-104 -31 -193 -52 -193 -18 0 -18 18 0 95 8 33 15 85 15 116 0 59 4 69 28 69
13 0 14 -14 9 -87z m-1517 -188 c0 -14 52 -117 89 -177 20 -34 21 -39 6 -44
-18 -7 -31 7 -73 81 -40 69 -66 141 -58 161 5 13 9 14 21 4 8 -7 15 -18 15
-25z m1368 -208 c5 -23 -162 -190 -186 -185 -28 5 -20 22 32 67 27 24 68 65
90 92 41 49 58 56 64 26z m-1030 -197 c37 -22 84 -46 105 -52 46 -14 67 -35
43 -44 -37 -14 -246 91 -246 124 0 21 29 13 98 -28z m642 -85 c0 -32 -257 -75
-275 -45 -12 19 14 30 75 31 30 0 78 7 105 14 70 18 95 18 95 0z"/>
</g>
</svg>
